<svg xmlns="http://www.w3.org/2000/svg" xmlns:xlink="http://www.w3.org/1999/xlink" contentStyleType="text/css" data-diagram-type="DESCRIPTION" height="1953px" preserveAspectRatio="none" style="width:2541px;height:1953px;background:#FFFFFF;" version="1.1" viewBox="0 0 2541 1953" width="2541px" zoomAndPan="magnify"><title>Vue des Cas d'Utilisation - Architecture Microservices DDD Multi-Magasins</title><defs/><g><g class="title" data-source-line="2"><text fill="#000000" font-family="sans-serif" font-size="14" font-weight="bold" lengthAdjust="spacing" textLength="588.4512" x="969.2744" y="22.9951">Vue des Cas d'Utilisation - Architecture Microservices DDD Multi-Magasins</text></g><!--cluster Syst?me Microservices DDD--><g class="cluster" data-entity="Syst&#232;me Microservices DDD" data-source-line="13" data-uid="ent0006" id="cluster_Syst&#232;me Microservices DDD"><rect fill="none" height="1091" rx="2.5" ry="2.5" style="stroke:#181818;stroke-width:1;" width="2528" x="7" y="215.6969"/><text fill="#000000" font-family="sans-serif" font-size="14" font-weight="bold" lengthAdjust="spacing" textLength="220.7598" x="1160.6201" y="230.692">Syst&#232;me Microservices DDD</text></g><!--cluster Bounded Context: Catalogue Management--><g class="cluster" data-entity="Bounded Context: Catalogue Management" data-source-line="15" data-uid="ent0007" id="cluster_Bounded Context: Catalogue Management"><rect fill="none" height="277" rx="2.5" ry="2.5" style="stroke:#181818;stroke-width:1;" width="350" x="1533.5" y="268.6969"/><text fill="#000000" font-family="sans-serif" font-size="14" font-style="italic" lengthAdjust="spacing" textLength="182" x="1617.5" y="283.692">&#171;service-catalogue:8001&#187;</text><text fill="#000000" font-family="sans-serif" font-size="14" font-weight="bold" lengthAdjust="spacing" textLength="334.5645" x="1541.2178" y="299.9889">Bounded Context: Catalogue Management</text></g><!--cluster Bounded Context: Inventory Management--><g class="cluster" data-entity="Bounded Context: Inventory Management" data-source-line="21" data-uid="ent0011" id="cluster_Bounded Context: Inventory Management"><rect fill="none" height="390" rx="2.5" ry="2.5" style="stroke:#181818;stroke-width:1;" width="346" x="2165" y="892.6969"/><text fill="#000000" font-family="sans-serif" font-size="14" font-style="italic" lengthAdjust="spacing" textLength="183.6885" x="2246.1558" y="907.692">&#171;service-inventaire:8002&#187;</text><text fill="#000000" font-family="sans-serif" font-size="14" font-weight="bold" lengthAdjust="spacing" textLength="330.9072" x="2172.5464" y="923.9889">Bounded Context: Inventory Management</text></g><!--cluster Bounded Context: Sales Management--><g class="cluster" data-entity="Bounded Context: Sales Management" data-source-line="28" data-uid="ent0016" id="cluster_Bounded Context: Sales Management"><rect fill="none" height="380" rx="2.5" ry="2.5" style="stroke:#181818;stroke-width:1;" width="312" x="1552.5" y="569.6969"/><text fill="#000000" font-family="sans-serif" font-size="14" font-style="italic" lengthAdjust="spacing" textLength="198.6113" x="1609.1943" y="584.692">&#171;service-commandes:8003&#187;</text><text fill="#000000" font-family="sans-serif" font-size="14" font-weight="bold" lengthAdjust="spacing" textLength="296.96" x="1560.02" y="600.9889">Bounded Context: Sales Management</text></g><!--cluster Bounded Context: Supply Chain Management--><g class="cluster" data-entity="Bounded Context: Supply Chain Management" data-source-line="35" data-uid="ent0021" id="cluster_Bounded Context: Supply Chain Management"><rect fill="none" height="309" rx="2.5" ry="2.5" style="stroke:#181818;stroke-width:1;" width="374" x="1522" y="973.6969"/><text fill="#000000" font-family="sans-serif" font-size="14" font-style="italic" lengthAdjust="spacing" textLength="201.9063" x="1608.0469" y="988.692">&#171;service-supply-chain:8004&#187;</text><text fill="#000000" font-family="sans-serif" font-size="14" font-weight="bold" lengthAdjust="spacing" textLength="358.1484" x="1529.9258" y="1004.9889">Bounded Context: Supply Chain Management</text></g><!--cluster Bounded Context: E-commerce Management--><g class="cluster" data-entity="Bounded Context: E-commerce Management" data-source-line="41" data-uid="ent0025" id="cluster_Bounded Context: E-commerce Management"><rect fill="none" height="377" rx="2.5" ry="2.5" style="stroke:#181818;stroke-width:1;" width="367" x="879" y="549.6969"/><text fill="#000000" font-family="sans-serif" font-size="14" font-style="italic" lengthAdjust="spacing" textLength="195.6582" x="964.6709" y="564.692">&#171;service-ecommerce:8005&#187;</text><text fill="#000000" font-family="sans-serif" font-size="14" font-weight="bold" lengthAdjust="spacing" textLength="351.4629" x="886.7686" y="580.9889">Bounded Context: E-commerce Management</text></g><!--cluster Infrastructure--><g class="cluster" data-entity="Infrastructure" data-source-line="48" data-uid="ent0030" id="cluster_Infrastructure"><rect fill="none" height="103" rx="2.5" ry="2.5" style="stroke:#181818;stroke-width:1;" width="643" x="31" y="350.6969"/><text fill="#000000" font-family="sans-serif" font-size="14" font-weight="bold" lengthAdjust="spacing" textLength="110.8721" x="297.064" y="365.692">Infrastructure</text></g><!--entity UCAT1--><g class="entity" data-entity="UCAT1" data-source-line="16" data-uid="ent0008" id="entity_UCAT1"><ellipse cx="1708.6968" cy="345.5362" fill="#F1F1F1" rx="117.1968" ry="25.8394" style="stroke:#181818;stroke-width:0.5;"/><text fill="#000000" font-family="sans-serif" font-size="14" lengthAdjust="spacing" textLength="213.3633" x="1602.0151" y="350.1847">UC-CAT1: Rechercher produits</text></g><!--entity UCAT2--><g class="entity" data-entity="UCAT2" data-source-line="17" data-uid="ent0009" id="entity_UCAT2"><ellipse cx="1708.2522" cy="429.6473" fill="#F1F1F1" rx="100.2522" ry="22.4504" style="stroke:#181818;stroke-width:0.5;"/><text fill="#000000" font-family="sans-serif" font-size="14" lengthAdjust="spacing" textLength="176.6133" x="1619.9456" y="434.2958">UC-CAT2: Ajouter produit</text></g><!--entity UCAT3--><g class="entity" data-entity="UCAT3" data-source-line="18" data-uid="ent0010" id="entity_UCAT3"><ellipse cx="1708.3001" cy="508.5569" fill="#F1F1F1" rx="92.3001" ry="20.86" style="stroke:#181818;stroke-width:0.5;"/><text fill="#000000" font-family="sans-serif" font-size="14" lengthAdjust="spacing" textLength="158.9287" x="1628.8358" y="513.2053">UC-CAT3: Modifier prix</text></g><!--entity UINV1--><g class="entity" data-entity="UINV1" data-source-line="22" data-uid="ent0012" id="entity_UINV1"><ellipse cx="2337.4578" cy="1054.4884" fill="#F1F1F1" rx="134.4578" ry="29.2916" style="stroke:#181818;stroke-width:0.5;"/><text fill="#000000" font-family="sans-serif" font-size="14" lengthAdjust="spacing" textLength="249.9697" x="2212.4729" y="1059.1369">UC-INV1: Consulter stocks centraux</text></g><!--entity UINV2--><g class="entity" data-entity="UINV2" data-source-line="23" data-uid="ent0013" id="entity_UINV2"><ellipse cx="2337.746" cy="1238.9461" fill="#F1F1F1" rx="126.746" ry="27.7492" style="stroke:#181818;stroke-width:0.5;"/><text fill="#000000" font-family="sans-serif" font-size="14" lengthAdjust="spacing" textLength="233.6934" x="2220.8993" y="1243.5945">UC-INV2: Consulter stocks locaux</text></g><!--entity UINV3--><g class="entity" data-entity="UINV3" data-source-line="24" data-uid="ent0014" id="entity_UINV3"><ellipse cx="2337.2761" cy="1147.6521" fill="#F1F1F1" rx="127.7761" ry="27.9552" style="stroke:#181818;stroke-width:0.5;"/><text fill="#000000" font-family="sans-serif" font-size="14" lengthAdjust="spacing" textLength="235.874" x="2219.339" y="1152.3005">UC-INV3: Cr&#233;er demande r&#233;appro</text></g><!--entity UINV4--><g class="entity" data-entity="UINV4" data-source-line="25" data-uid="ent0015" id="entity_UINV4"><ellipse cx="2337.5451" cy="966.6059" fill="#F1F1F1" rx="102.5451" ry="22.909" style="stroke:#181818;stroke-width:0.5;"/><text fill="#000000" font-family="sans-serif" font-size="14" lengthAdjust="spacing" textLength="181.6514" x="2246.7194" y="971.2543">UC-INV4: Transf&#233;rer stock</text></g><!--entity UCMD1--><g class="entity" data-entity="UCMD1" data-source-line="29" data-uid="ent0017" id="entity_UCMD1"><ellipse cx="1708.5002" cy="645.5969" fill="#F1F1F1" rx="110.0002" ry="24.4" style="stroke:#181818;stroke-width:0.5;"/><text fill="#000000" font-family="sans-serif" font-size="14" lengthAdjust="spacing" textLength="197.8799" x="1609.5602" y="650.2453">UC-CMD1: Enregistrer vente</text></g><!--entity UCMD2--><g class="entity" data-entity="UCMD2" data-source-line="30" data-uid="ent0018" id="entity_UCMD2"><ellipse cx="1708.7111" cy="822.9391" fill="#F1F1F1" rx="139.2111" ry="30.2422" style="stroke:#181818;stroke-width:0.5;"/><text fill="#000000" font-family="sans-serif" font-size="14" lengthAdjust="spacing" textLength="259.9502" x="1578.736" y="827.5875">UC-CMD2: G&#233;n&#233;rer rapport consolid&#233;</text></g><!--entity UCMD3--><g class="entity" data-entity="UCMD3" data-source-line="31" data-uid="ent0019" id="entity_UCMD3"><ellipse cx="1708.5306" cy="731.703" fill="#F1F1F1" rx="118.0306" ry="26.0061" style="stroke:#181818;stroke-width:0.5;"/><text fill="#000000" font-family="sans-serif" font-size="14" lengthAdjust="spacing" textLength="215.1475" x="1600.9568" y="736.3514">UC-CMD3: G&#233;n&#233;rer indicateurs</text></g><!--entity UCMD4--><g class="entity" data-entity="UCMD4" data-source-line="32" data-uid="ent0020" id="entity_UCMD4"><ellipse cx="1708.3221" cy="910.4613" fill="#F1F1F1" rx="99.3221" ry="22.2644" style="stroke:#181818;stroke-width:0.5;"/><text fill="#000000" font-family="sans-serif" font-size="14" lengthAdjust="spacing" textLength="174.5625" x="1621.0408" y="915.1097">UC-CMD4: Annuler vente</text></g><!--entity USUP1--><g class="entity" data-entity="USUP1" data-source-line="36" data-uid="ent0022" id="entity_USUP1"><ellipse cx="1708.5907" cy="1055.915" fill="#F1F1F1" rx="141.5907" ry="30.7181" style="stroke:#181818;stroke-width:0.5;"/><text fill="#000000" font-family="sans-serif" font-size="14" lengthAdjust="spacing" textLength="264.9336" x="1576.1239" y="1060.5634">UC-SUP1: Lister demandes en attente</text></g><!--entity USUP2--><g class="entity" data-entity="USUP2" data-source-line="37" data-uid="ent0023" id="entity_USUP2"><ellipse cx="1708.3166" cy="1152.7602" fill="#F1F1F1" rx="143.3166" ry="31.0633" style="stroke:#181818;stroke-width:0.5;"/><text fill="#000000" font-family="sans-serif" font-size="14" lengthAdjust="spacing" textLength="268.543" x="1574.0451" y="1157.4086">UC-SUP2: Valider demande (workflow)</text></g><!--entity USUP3--><g class="entity" data-entity="USUP3" data-source-line="38" data-uid="ent0024" id="entity_USUP3"><ellipse cx="1708.2724" cy="1242.5514" fill="#F1F1F1" rx="107.2724" ry="23.8545" style="stroke:#181818;stroke-width:0.5;"/><text fill="#000000" font-family="sans-serif" font-size="14" lengthAdjust="spacing" textLength="191.9668" x="1612.289" y="1247.1998">UC-SUP3: Rejeter demande</text></g><!--entity UECO1--><g class="entity" data-entity="UECO1" data-source-line="42" data-uid="ent0026" id="entity_UECO1"><ellipse cx="1062.3479" cy="626.8664" fill="#F1F1F1" rx="116.3479" ry="25.6696" style="stroke:#181818;stroke-width:0.5;"/><text fill="#000000" font-family="sans-serif" font-size="14" lengthAdjust="spacing" textLength="211.5449" x="956.5754" y="631.5149">UC-ECO1: Cr&#233;er compte client</text></g><!--entity UECO2--><g class="entity" data-entity="UECO2" data-source-line="43" data-uid="ent0027" id="entity_UECO2"><ellipse cx="1062.278" cy="714.8525" fill="#F1F1F1" rx="123.778" ry="27.1556" style="stroke:#181818;stroke-width:0.5;"/><text fill="#000000" font-family="sans-serif" font-size="14" lengthAdjust="spacing" textLength="227.3975" x="948.5793" y="719.5009">UC-ECO2: Ajouter produit panier</text></g><!--entity UECO3--><g class="entity" data-entity="UECO3" data-source-line="44" data-uid="ent0028" id="entity_UECO3"><ellipse cx="1062.53" cy="804.7029" fill="#F1F1F1" rx="125.53" ry="27.506" style="stroke:#181818;stroke-width:0.5;"/><text fill="#000000" font-family="sans-serif" font-size="14" lengthAdjust="spacing" textLength="231.1162" x="946.9719" y="809.3513">UC-ECO3: Checkout e-commerce</text></g><!--entity UECO4--><g class="entity" data-entity="UECO4" data-source-line="45" data-uid="ent0029" id="entity_UECO4"><ellipse cx="1062.4593" cy="888.5887" fill="#F1F1F1" rx="94.9593" ry="21.3919" style="stroke:#181818;stroke-width:0.5;"/><text fill="#000000" font-family="sans-serif" font-size="14" lengthAdjust="spacing" textLength="164.8828" x="980.0179" y="893.2372">UC-ECO4: Valider client</text></g><!--entity GATEWAY--><g class="entity" data-entity="GATEWAY" data-source-line="49" data-uid="ent0031" id="entity_GATEWAY"><ellipse cx="541.2159" cy="411.5401" fill="#F1F1F1" rx="117.2159" ry="25.8432" style="stroke:#181818;stroke-width:0.5;"/><text fill="#000000" font-family="sans-serif" font-size="14" lengthAdjust="spacing" textLength="213.4043" x="434.5138" y="416.1885">Kong Gateway Load Balancing</text></g><!--entity FRONTEND--><g class="entity" data-entity="FRONTEND" data-source-line="50" data-uid="ent0032" id="entity_FRONTEND"><ellipse cx="141.3194" cy="407.4608" fill="#F1F1F1" rx="94.3194" ry="21.2639" style="stroke:#181818;stroke-width:0.5;"/><text fill="#000000" font-family="sans-serif" font-size="14" lengthAdjust="spacing" textLength="163.4541" x="59.5924" y="412.1092">Frontend Orchestration</text></g><!--entity Employe--><g class="entity" data-entity="Employe" data-source-line="8" data-uid="ent0002" id="entity_Employe"><ellipse cx="1062.4565" cy="1637.6969" fill="#F1F1F1" rx="16" ry="16" style="stroke:#181818;stroke-width:0.5;"/><path d="M1062.4565,1657.6969 C1066.4565,1657.6969 1069.4565,1657.6969 1073.4565,1653.6969 C1081.4565,1653.6969 1089.4565,1661.6969 1089.4565,1669.6969 L1089.4565,1673.6969 C1089.4565,1677.6969 1085.4565,1681.6969 1081.4565,1681.6969 L1043.4565,1681.6969 C1039.4565,1681.6969 1035.4565,1677.6969 1035.4565,1673.6969 L1035.4565,1669.6969 C1035.4565,1661.6969 1043.4565,1653.6969 1051.4565,1653.6969 C1055.4565,1657.6969 1058.4565,1657.6969 1062.4565,1657.6969" fill="#F1F1F1" style="stroke:#181818;stroke-width:0.5;"/><text fill="#000000" font-family="sans-serif" font-size="14" lengthAdjust="spacing" textLength="124.9131" x="1000" y="1695.192">Employ&#233; magasin</text></g><!--entity Admin--><g class="entity" data-entity="Admin" data-source-line="9" data-uid="ent0003" id="entity_Admin"><ellipse cx="1062.6421" cy="1339.6969" fill="#F1F1F1" rx="16" ry="16" style="stroke:#181818;stroke-width:0.5;"/><path d="M1062.6421,1359.6969 C1066.6421,1359.6969 1069.6421,1359.6969 1073.6421,1355.6969 C1081.6421,1355.6969 1089.6421,1363.6969 1089.6421,1371.6969 L1089.6421,1375.6969 C1089.6421,1379.6969 1085.6421,1383.6969 1081.6421,1383.6969 L1043.6421,1383.6969 C1039.6421,1383.6969 1035.6421,1379.6969 1035.6421,1375.6969 L1035.6421,1371.6969 C1035.6421,1363.6969 1043.6421,1355.6969 1051.6421,1355.6969 C1055.6421,1359.6969 1058.6421,1359.6969 1062.6421,1359.6969" fill="#F1F1F1" style="stroke:#181818;stroke-width:0.5;"/><text fill="#000000" font-family="sans-serif" font-size="14" lengthAdjust="spacing" textLength="89.2842" x="1018" y="1397.192">Gestionnaire</text></g><!--entity ClientWeb--><g class="entity" data-entity="ClientWeb" data-source-line="10" data-uid="ent0004" id="entity_ClientWeb"><ellipse cx="540.9316" cy="1339.6969" fill="#F1F1F1" rx="16" ry="16" style="stroke:#181818;stroke-width:0.5;"/><path d="M540.9316,1359.6969 C544.9316,1359.6969 547.9316,1359.6969 551.9316,1355.6969 C559.9316,1355.6969 567.9316,1363.6969 567.9316,1371.6969 L567.9316,1375.6969 C567.9316,1379.6969 563.9316,1383.6969 559.9316,1383.6969 L521.9316,1383.6969 C517.9316,1383.6969 513.9316,1379.6969 513.9316,1375.6969 L513.9316,1371.6969 C513.9316,1363.6969 521.9316,1355.6969 529.9316,1355.6969 C533.9316,1359.6969 536.9316,1359.6969 540.9316,1359.6969" fill="#F1F1F1" style="stroke:#181818;stroke-width:0.5;"/><text fill="#000000" font-family="sans-serif" font-size="14" lengthAdjust="spacing" textLength="132.8633" x="474.5" y="1397.192">Client e-commerce</text></g><!--entity ApiClient--><g class="entity" data-entity="ApiClient" data-source-line="11" data-uid="ent0005" id="entity_ApiClient"><ellipse cx="540.9111" cy="1451.6969" fill="#F1F1F1" rx="16" ry="16" style="stroke:#181818;stroke-width:0.5;"/><path d="M540.9111,1471.6969 C544.9111,1471.6969 547.9111,1471.6969 551.9111,1467.6969 C559.9111,1467.6969 567.9111,1475.6969 567.9111,1483.6969 L567.9111,1487.6969 C567.9111,1491.6969 563.9111,1495.6969 559.9111,1495.6969 L521.9111,1495.6969 C517.9111,1495.6969 513.9111,1491.6969 513.9111,1487.6969 L513.9111,1483.6969 C513.9111,1475.6969 521.9111,1467.6969 529.9111,1467.6969 C533.9111,1471.6969 536.9111,1471.6969 540.9111,1471.6969" fill="#F1F1F1" style="stroke:#181818;stroke-width:0.5;"/><text fill="#000000" font-family="sans-serif" font-size="14" lengthAdjust="spacing" textLength="125.8223" x="478" y="1509.192">API Client externe</text></g><!--link Employe to UCMD1--><g class="link" data-entity-1="Employe" data-entity-2="UCMD1" data-source-line="55" data-uid="lnk33" id="link_Employe_UCMD1"><path d="M1125.19,1623.8269 C1168.74,1595.0169 1224.42,1550.3969 1254,1495.6969 C1305.61,1400.2669 1211.49,1332.5569 1286,1253.6969 C1338.2,1198.4469 1402.34,1277.4569 1454,1221.6969 C1616.31,1046.4969 1353.94,864.9469 1514,687.6969 C1535.48,663.9069 1561.0863,652.9474 1592.4663,647.2574" fill="none" id="Employe-to-UCMD1" style="stroke:#181818;stroke-width:1;"/><polygon fill="#181818" points="1598.37,646.1869,1588.8007,643.8568,1593.4502,647.079,1590.2281,651.7284,1598.37,646.1869" style="stroke:#181818;stroke-width:1;"/><text fill="#000000" font-family="sans-serif" font-size="13" lengthAdjust="spacing" textLength="113.3755" x="1313.5" y="1217.7638">Enregistrer vente</text></g><!--link Employe to UINV1--><g class="link" data-entity-1="Employe" data-entity-2="UINV1" data-source-line="56" data-uid="lnk34" id="link_Employe_UINV1"><path d="M1125.03,1658.1469 C1340.95,1652.0869 2054.97,1626.7269 2125,1554.6969 C2195.35,1482.3469 2092.56,1179.3569 2157,1101.6969 C2171.3,1084.4669 2185.3932,1075.0986 2206.6032,1067.7186" fill="none" id="Employe-to-UINV1" style="stroke:#181818;stroke-width:1;"/><polygon fill="#181818" points="2212.27,1065.7469,2202.4554,1064.9267,2207.5477,1067.39,2205.0844,1072.4823,2212.27,1065.7469" style="stroke:#181818;stroke-width:1;"/><text fill="#000000" font-family="sans-serif" font-size="13" lengthAdjust="spacing" textLength="107.7388" x="1655" y="1604.7638">Consulter stocks</text></g><!--link Employe to UINV2--><g class="link" data-entity-1="Employe" data-entity-2="UINV2" data-source-line="57" data-uid="lnk35" id="link_Employe_UINV2"><path d="M1125.1,1687.2869 C1301.82,1761.7969 1817.44,1946.2269 2125,1711.6969 C2276.11,1596.4669 2321.0346,1355.2712 2332.4046,1272.3812" fill="none" id="Employe-to-UINV2" style="stroke:#181818;stroke-width:1;"/><polygon fill="#181818" points="2333.22,1266.4369,2328.034,1274.8098,2332.5405,1271.3905,2335.9598,1275.897,2333.22,1266.4369" style="stroke:#181818;stroke-width:1;"/><text fill="#000000" font-family="sans-serif" font-size="13" lengthAdjust="spacing" textLength="120.4341" x="1648.5" y="1803.7638">V&#233;rifier stock local</text></g><!--link Employe to UINV3--><g class="link" data-entity-1="Employe" data-entity-2="UINV3" data-source-line="58" data-uid="lnk36" id="link_Employe_UINV3"><path d="M1125.03,1668.3469 C1330.89,1695.7469 1990.22,1770.5069 2125,1624.6969 C2190.19,1554.1669 2095.35,1267.3369 2157,1193.6969 C2172.18,1175.5669 2187.7233,1165.8789 2210.3133,1158.6789" fill="none" id="Employe-to-UINV3" style="stroke:#181818;stroke-width:1;"/><polygon fill="#181818" points="2216.03,1156.8569,2206.2403,1155.7788,2211.2661,1158.3752,2208.6697,1163.401,2216.03,1156.8569" style="stroke:#181818;stroke-width:1;"/><text fill="#000000" font-family="sans-serif" font-size="13" lengthAdjust="spacing" textLength="123.7158" x="1647" y="1697.7638">Demander r&#233;appro</text></g><!--link Admin to UCMD2--><g class="link" data-entity-1="Admin" data-entity-2="UCMD2" data-source-line="61" data-uid="lnk37" id="link_Admin_UCMD2"><path d="M1107.36,1351.4469 C1152.21,1341.0169 1223.9,1324.4669 1286,1310.6969 C1360.55,1294.1669 1401.75,1330.3869 1454,1274.6969 C1578.21,1142.3169 1391.93,1005.0469 1514,870.6969 C1530.76,852.2569 1547.6777,842.1913 1571.5577,834.6613" fill="none" id="Admin-to-UCMD2" style="stroke:#181818;stroke-width:1;"/><polygon fill="#181818" points="1577.28,832.8569,1567.4937,831.7486,1572.5115,834.3605,1569.8995,839.3783,1577.28,832.8569" style="stroke:#181818;stroke-width:1;"/><text fill="#000000" font-family="sans-serif" font-size="13" lengthAdjust="spacing" textLength="126.9849" x="1307" y="1270.7638">Rapport des ventes</text></g><!--link Admin to UCMD3--><g class="link" data-entity-1="Admin" data-entity-2="UCMD3" data-source-line="62" data-uid="lnk38" id="link_Admin_UCMD3"><path d="M1104.32,1322.8569 C1146.5,1284.9269 1215.89,1228.3969 1286,1196.6969 C1355.58,1165.2369 1401.56,1216.2069 1454,1160.6969 C1573.22,1034.4869 1395.26,901.3569 1514,774.6969 C1534.18,753.1669 1556.7006,742.5283 1585.5106,736.1783" fill="none" id="Admin-to-UCMD3" style="stroke:#181818;stroke-width:1;"/><polygon fill="#181818" points="1591.37,734.8869,1581.72,732.9178,1586.4872,735.9631,1583.4419,740.7303,1591.37,734.8869" style="stroke:#181818;stroke-width:1;"/><text fill="#000000" font-family="sans-serif" font-size="13" lengthAdjust="spacing" textLength="158.374" x="1291" y="1156.7638">Dashboard performance</text></g><!--link Admin to UCAT2--><g class="link" data-entity-1="Admin" data-entity-2="UCAT2" data-source-line="63" data-uid="lnk39" id="link_Admin_UCAT2"><path d="M1082.86,1323.1369 C1115.75,1261.8669 1188.55,1143.0269 1286,1082.6969 C1350.93,1042.4969 1402.98,1103.5169 1454,1046.6969 C1626.26,854.8569 1341.05,660.9069 1514,469.6969 C1537.76,443.4269 1567.8797,432.6178 1602.4597,428.1378" fill="none" id="Admin-to-UCAT2" style="stroke:#181818;stroke-width:1;"/><polygon fill="#181818" points="1608.41,427.3669,1598.9707,424.5564,1603.4514,428.0093,1599.9985,432.4901,1608.41,427.3669" style="stroke:#181818;stroke-width:1;"/><text fill="#000000" font-family="sans-serif" font-size="13" lengthAdjust="spacing" textLength="104.7935" x="1318" y="1042.7638">Ajouter produits</text></g><!--link Admin to UCAT3--><g class="link" data-entity-1="Admin" data-entity-2="UCAT3" data-source-line="64" data-uid="lnk40" id="link_Admin_UCAT3"><path d="M1091.03,1322.7769 C1128.93,1272.2869 1202.09,1185.2869 1286,1139.6969 C1353.1,1103.2469 1402.53,1160.1069 1454,1103.6969 C1604.57,938.6969 1385.13,787.1469 1514,604.6969 C1544.29,561.8169 1593.5909,538.9093 1637.2409,525.3293" fill="none" id="Admin-to-UCAT3" style="stroke:#181818;stroke-width:1;"/><polygon fill="#181818" points="1642.97,523.5469,1633.188,522.401,1638.1957,525.0322,1635.5646,530.0399,1642.97,523.5469" style="stroke:#181818;stroke-width:1;"/><text fill="#000000" font-family="sans-serif" font-size="13" lengthAdjust="spacing" textLength="81.5991" x="1329.5" y="1099.7638">Modifier prix</text></g><!--link Admin to USUP1--><g class="link" data-entity-1="Admin" data-entity-2="USUP1" data-source-line="65" data-uid="lnk41" id="link_Admin_USUP1"><path d="M1107.28,1364.4469 C1198.01,1369.2069 1402.43,1374.6969 1454,1331.6969 C1534.47,1264.5869 1439.38,1177.2669 1514,1103.6969 C1531.5,1086.4469 1548.4563,1076.8666 1572.0863,1069.4366" fill="none" id="Admin-to-USUP1" style="stroke:#181818;stroke-width:1;"/><polygon fill="#181818" points="1577.81,1067.6369,1568.0246,1066.5206,1573.0402,1069.1366,1570.4242,1074.1523,1577.81,1067.6369" style="stroke:#181818;stroke-width:1;"/><text fill="#000000" font-family="sans-serif" font-size="13" lengthAdjust="spacing" textLength="108.3418" x="1316" y="1327.7638">Lister demandes</text></g><!--link Admin to USUP2--><g class="link" data-entity-1="Admin" data-entity-2="USUP2" data-source-line="66" data-uid="lnk42" id="link_Admin_USUP2"><path d="M1107.19,1381.3469 C1185.14,1413.0969 1349.74,1464.8669 1454,1388.6969 C1524.82,1336.9569 1449.98,1260.6469 1514,1200.6969 C1531.75,1184.0769 1548.6074,1174.7702 1572.0274,1167.3902" fill="none" id="Admin-to-USUP2" style="stroke:#181818;stroke-width:1;"/><polygon fill="#181818" points="1577.75,1165.5869,1567.9639,1164.4767,1572.9812,1167.0896,1570.3683,1172.1069,1577.75,1165.5869" style="stroke:#181818;stroke-width:1;"/><text fill="#000000" font-family="sans-serif" font-size="13" lengthAdjust="spacing" textLength="117.9521" x="1311.5" y="1384.7638">Valider demandes</text></g><!--link Admin to USUP3--><g class="link" data-entity-1="Admin" data-entity-2="USUP3" data-source-line="67" data-uid="lnk43" id="link_Admin_USUP3"><path d="M1107.34,1367.5769 C1149.15,1375.1569 1211.83,1391.9169 1254,1427.6969 C1276.75,1446.9969 1260.37,1471.4369 1286,1486.6969 C1350.16,1524.8869 1384.75,1514.6069 1454,1486.6969 C1567.03,1441.1369 1654.5158,1323.4018 1689.0958,1271.4418" fill="none" id="Admin-to-USUP3" style="stroke:#181818;stroke-width:1;"/><polygon fill="#181818" points="1692.42,1266.4469,1684.1037,1271.7232,1689.6498,1270.6093,1690.7637,1276.1555,1692.42,1266.4469" style="stroke:#181818;stroke-width:1;"/><text fill="#000000" font-family="sans-serif" font-size="13" lengthAdjust="spacing" textLength="119.355" x="1310.5" y="1482.7638">Rejeter demandes</text></g><!--link ClientWeb to UECO1--><g class="link" data-entity-1="ClientWeb" data-entity-2="UECO1" data-source-line="70" data-uid="lnk44" id="link_ClientWeb_UECO1"><path d="M544.87,1322.9669 C555.33,1192.8369 595.85,774.5369 690,685.6969 C761.6,618.1369 871.7086,609.3656 955.0686,613.8356" fill="none" id="ClientWeb-to-UECO1" style="stroke:#181818;stroke-width:1;"/><polygon fill="#181818" points="961.06,614.1569,952.2871,609.6807,956.0672,613.8891,951.8587,617.6692,961.06,614.1569" style="stroke:#181818;stroke-width:1;"/><text fill="#000000" font-family="sans-serif" font-size="13" lengthAdjust="spacing" textLength="89.0068" x="720" y="616.7638">Cr&#233;er compte</text></g><!--link ClientWeb to UECO2--><g class="link" data-entity-1="ClientWeb" data-entity-2="UECO2" data-source-line="71" data-uid="lnk45" id="link_ClientWeb_UECO2"><path d="M546.24,1323.1469 C560.05,1204.7969 607.69,850.1569 690,774.6969 C759.71,710.7969 863.3631,699.7827 945.5031,702.4427" fill="none" id="ClientWeb-to-UECO2" style="stroke:#181818;stroke-width:1;"/><polygon fill="#181818" points="951.5,702.6369,942.6342,698.3477,946.5026,702.475,942.3752,706.3435,951.5,702.6369" style="stroke:#181818;stroke-width:1;"/><text fill="#000000" font-family="sans-serif" font-size="13" lengthAdjust="spacing" textLength="113.02" x="708" y="706.7638">Ajouter au panier</text></g><!--link ClientWeb to UECO3--><g class="link" data-entity-1="ClientWeb" data-entity-2="UECO3" data-source-line="72" data-uid="lnk46" id="link_ClientWeb_UECO3"><path d="M545.59,1322.9869 C555.02,1241.7769 587.35,1051.6469 690,936.6969 C749.45,870.1169 786.86,879.4669 871,849.6969 C901.76,838.8169 930.379,831.0955 961.469,824.0355" fill="none" id="ClientWeb-to-UECO3" style="stroke:#181818;stroke-width:1;"/><polygon fill="#181818" points="967.32,822.7069,957.6577,820.7992,962.4441,823.8141,959.4292,828.6006,967.32,822.7069" style="stroke:#181818;stroke-width:1;"/><text fill="#000000" font-family="sans-serif" font-size="13" lengthAdjust="spacing" textLength="136.373" x="696.5" y="856.7638">Commander en ligne</text></g><!--link ClientWeb to UCAT1--><g class="link" data-entity-1="ClientWeb" data-entity-2="UCAT1" data-source-line="73" data-uid="lnk47" id="link_ClientWeb_UCAT1"><path d="M546.72,1323.1069 C557.69,1251.4169 591.92,1098.1769 690,1023.6969 C891.63,870.5769 1025.34,1052.3769 1254,943.6969 C1363.36,891.7169 1396.72,865.3769 1454,758.6969 C1532.6,612.3069 1400.23,510.7969 1514,389.6969 C1534.46,367.9169 1557.4217,357.1431 1586.5717,350.6931" fill="none" id="ClientWeb-to-UCAT1" style="stroke:#181818;stroke-width:1;"/><polygon fill="#181818" points="1592.43,349.3969,1582.7784,347.4357,1587.5481,350.4771,1584.5067,355.2468,1592.43,349.3969" style="stroke:#181818;stroke-width:1;"/><text fill="#000000" font-family="sans-serif" font-size="13" lengthAdjust="spacing" textLength="132.1455" x="996.5" y="939.7638">Rechercher produits</text></g><!--link ApiClient to UCAT1--><g class="link" data-entity-1="ApiClient" data-entity-2="UCAT1" data-source-line="76" data-uid="lnk48" id="link_ApiClient_UCAT1"><path d="M604.15,1451.8269 C628.86,1442.3669 657.25,1430.5269 682,1417.6969 C824.07,1344.0769 1148.24,1107.1069 1286,1025.6969 C1358.92,982.5969 1406.58,1005.8869 1454,935.6969 C1590.68,733.4169 1351.5,571.8869 1514,389.6969 C1534.01,367.2669 1556.9878,356.2856 1586.3278,349.8856" fill="none" id="ApiClient-to-UCAT1" style="stroke:#181818;stroke-width:1;"/><polygon fill="#181818" points="1592.19,348.6069,1582.5443,346.6169,1587.3049,349.6725,1584.2493,354.4331,1592.19,348.6069" style="stroke:#181818;stroke-width:1;"/><text fill="#000000" font-family="sans-serif" font-size="13" lengthAdjust="spacing" textLength="93.8438" x="1016" y="1043.7638">API Recherche</text></g><!--link ApiClient to UCMD2--><g class="link" data-entity-1="ApiClient" data-entity-2="UCMD2" data-source-line="77" data-uid="lnk49" id="link_ApiClient_UCMD2"><path d="M604.19,1482.7369 C731.29,1498.5869 1027.94,1521.9969 1254,1434.6969 C1271.09,1428.0969 1269.66,1416.9869 1286,1408.6969 C1354.84,1373.7969 1403.24,1422.8369 1454,1364.6969 C1599.46,1198.0969 1367.46,1036.3469 1514,870.6969 C1530.51,852.0269 1547.3196,841.877 1571.1796,834.327" fill="none" id="ApiClient-to-UCMD2" style="stroke:#181818;stroke-width:1;"/><polygon fill="#181818" points="1576.9,832.5169,1567.1126,831.4184,1572.133,834.0253,1569.5261,839.0457,1576.9,832.5169" style="stroke:#181818;stroke-width:1;"/><text fill="#000000" font-family="sans-serif" font-size="13" lengthAdjust="spacing" textLength="83.3701" x="1021" y="1430.7638">API Rapports</text></g><!--link ApiClient to UINV1--><g class="link" data-entity-1="ApiClient" data-entity-2="UINV1" data-source-line="78" data-uid="lnk50" id="link_ApiClient_UINV1"><path d="M604.11,1491.3569 C753.42,1530.9269 1143.12,1617.0969 1454,1535.6969 C1675.96,1477.5769 1710.41,1405.8469 1904,1282.6969 C2020.65,1208.4869 2031.83,1160.4069 2157,1101.6969 C2181.64,1090.1369 2203.7772,1082.6124 2230.1372,1075.6824" fill="none" id="ApiClient-to-UINV1" style="stroke:#181818;stroke-width:1;"/><polygon fill="#181818" points="2235.94,1074.1569,2226.2187,1072.5767,2231.1043,1075.4282,2228.2528,1080.3137,2235.94,1074.1569" style="stroke:#181818;stroke-width:1;"/><text fill="#000000" font-family="sans-serif" font-size="13" lengthAdjust="spacing" textLength="67.4502" x="1336.5" y="1531.7638">API Stocks</text></g><!--link ApiClient to UECO1--><g class="link" data-entity-1="ApiClient" data-entity-2="UECO1" data-source-line="79" data-uid="lnk51" id="link_ApiClient_UECO1"><path d="M604.21,1464.8069 C632.87,1457.2769 664.36,1443.3669 682,1417.6969 C700.22,1391.1869 670.17,864.0269 690,838.6969 C732.2,784.7969 790.95,848.4569 839,799.6969 C880.77,757.3169 828.52,711.3569 871,669.6969 C891.57,649.5169 913.6393,639.3269 941.7493,632.9369" fill="none" id="ApiClient-to-UECO1" style="stroke:#181818;stroke-width:1;"/><polygon fill="#181818" points="947.6,631.6069,937.9372,629.7014,942.7244,632.7152,939.7106,637.5024,947.6,631.6069" style="stroke:#181818;stroke-width:1;"/><text fill="#000000" font-family="sans-serif" font-size="13" lengthAdjust="spacing" textLength="69.1069" x="730" y="795.7638">API Clients</text></g><!--link UCMD1 to UINV4--><g class="link" data-entity-1="UCMD1" data-entity-2="UINV4" data-source-line="82" data-uid="lnk52" id="link_UCMD1_UINV4"><path d="M1802.11,658.6469 C1835.06,665.0769 1871.93,674.4069 1904,687.6969 C2071.16,756.9569 2239.839,887.4263 2304.979,940.5163" fill="none" id="UCMD1-to-UINV4" style="stroke:#181818;stroke-width:1;stroke-dasharray:7.0,7.0;"/><polygon fill="#181818" points="2309.63,944.3069,2305.1806,935.5203,2305.7542,941.148,2300.1265,941.7216,2309.63,944.3069" style="stroke:#181818;stroke-width:1;"/><text fill="#000000" font-family="sans-serif" font-size="13" lengthAdjust="spacing" textLength="142.6445" x="1973.5" y="713.7638">&#171;HTTP&#187; R&#233;duire stock</text></g><!--link USUP2 to UINV4--><g class="link" data-entity-1="USUP2" data-entity-2="UINV4" data-source-line="83" data-uid="lnk53" id="link_USUP2_UINV4"><path d="M1808.07,1130.2169 C1838.99,1122.5369 1873.11,1113.4169 1904,1103.6969 C2018.73,1067.6169 2041.88,1042.5069 2157,1007.6969 C2190.35,997.6169 2221.9754,989.9545 2254.0354,983.0245" fill="none" id="USUP2-to-UINV4" style="stroke:#181818;stroke-width:1;stroke-dasharray:7.0,7.0;"/><polygon fill="#181818" points="2259.9,981.7569,2250.2581,979.7487,2255.0129,982.8133,2251.9483,987.5681,2259.9,981.7569" style="stroke:#181818;stroke-width:1;"/><text fill="#000000" font-family="sans-serif" font-size="13" lengthAdjust="spacing" textLength="159.6943" x="1965" y="1016.7638">&#171;HTTP&#187; Transf&#233;rer stock</text></g><!--link UECO3 to UCAT1--><g class="link" data-entity-1="UECO3" data-entity-2="UCAT1" data-source-line="84" data-uid="lnk54" id="link_UECO3_UCAT1"><path d="M1180.14,794.7569 C1206.77,787.8269 1233.29,776.6269 1254,758.6969 C1282.95,733.6269 1266.83,711.8469 1286,678.6969 C1367.89,537.0669 1375.67,477.0469 1514,389.6969 C1540.14,373.1869 1565.8748,364.1114 1595.8848,357.6414" fill="none" id="UECO3-to-UCAT1" style="stroke:#181818;stroke-width:1;stroke-dasharray:7.0,7.0;"/><polygon fill="#181818" points="1601.75,356.3769,1592.1091,354.3635,1596.8623,357.4306,1593.7952,362.1838,1601.75,356.3769" style="stroke:#181818;stroke-width:1;"/><text fill="#000000" font-family="sans-serif" font-size="13" lengthAdjust="spacing" textLength="156.8696" x="1292" y="431.7638">&#171;HTTP&#187; Valider produits</text></g><!--link UECO3 to UCMD1--><g class="link" data-entity-1="UECO3" data-entity-2="UCMD1" data-source-line="85" data-uid="lnk55" id="link_UECO3_UCMD1"><path d="M1148.98,784.6269 C1181.87,776.7569 1219.73,767.5069 1254,758.6969 C1370.01,728.8569 1397.65,716.1869 1514,687.6969 C1550.9,678.6569 1586.1205,670.8416 1620.9205,663.4616" fill="none" id="UECO3-to-UCMD1" style="stroke:#181818;stroke-width:1;stroke-dasharray:7.0,7.0;"/><polygon fill="#181818" points="1626.79,662.2169,1617.156,660.171,1621.8988,663.2542,1618.8156,667.997,1626.79,662.2169" style="stroke:#181818;stroke-width:1;"/><text fill="#000000" font-family="sans-serif" font-size="13" lengthAdjust="spacing" textLength="166.3149" x="1287" y="699.7638">&#171;HTTP&#187; Cr&#233;er commande</text></g><!--link FRONTEND to GATEWAY--><g class="link" data-entity-1="FRONTEND" data-entity-2="GATEWAY" data-source-line="88" data-uid="lnk56" id="link_FRONTEND_GATEWAY"><path d="M235.95,408.6369 C292.17,409.2069 358.2103,409.8667 418.0503,410.4667" fill="none" id="FRONTEND-to-GATEWAY" style="stroke:#181818;stroke-width:1;"/><polygon fill="#181818" points="424.05,410.5269,415.0906,406.4368,419.0503,410.4767,415.0103,414.4364,424.05,410.5269" style="stroke:#181818;stroke-width:1;"/><text fill="#000000" font-family="sans-serif" font-size="13" lengthAdjust="spacing" textLength="126.6738" x="267" y="405.7638">Orchestration HTTP</text></g><!--link GATEWAY to UCAT1--><g class="link" data-entity-1="GATEWAY" data-entity-2="UCAT1" data-source-line="89" data-uid="lnk57" id="link_GATEWAY_UCAT1"><path d="M650.87,402.6869 C714.93,397.5669 797.53,391.2869 871,386.6969 C1128.95,370.5769 1425.9753,357.328 1587.1153,350.578" fill="none" id="GATEWAY-to-UCAT1" style="stroke:#181818;stroke-width:1;"/><polygon fill="#181818" points="1593.11,350.3269,1583.9505,346.7071,1588.1144,350.5361,1584.2853,354.7,1593.11,350.3269" style="stroke:#181818;stroke-width:1;"/><text fill="#000000" font-family="sans-serif" font-size="13" lengthAdjust="spacing" textLength="135.2749" x="995" y="362.7638">Route /api/catalogue</text></g><!--link GATEWAY to UINV1--><g class="link" data-entity-1="GATEWAY" data-entity-2="UINV1" data-source-line="90" data-uid="lnk58" id="link_GATEWAY_UINV1"><path d="M592.93,388.3569 C782.11,305.3969 1456.57,43.2969 1904,303.6969 C2075.86,403.7169 2064.51,503.2769 2125,692.6969 C2146.34,759.5069 2111.52,953.2969 2157,1006.6969 C2171.75,1024.0069 2186.309,1033.4674 2207.899,1040.9274" fill="none" id="GATEWAY-to-UINV1" style="stroke:#181818;stroke-width:1;"/><polygon fill="#181818" points="2213.57,1042.8869,2206.3698,1036.1669,2208.8442,1041.254,2203.7572,1043.7283,2213.57,1042.8869" style="stroke:#181818;stroke-width:1;"/><text fill="#000000" font-family="sans-serif" font-size="13" lengthAdjust="spacing" textLength="136.8428" x="1302" y="187.7638">Route /api/inventaire</text></g><!--link GATEWAY to UCMD1--><g class="link" data-entity-1="GATEWAY" data-entity-2="UCMD1" data-source-line="91" data-uid="lnk59" id="link_GATEWAY_UCMD1"><path d="M658.27,411.9369 C903.13,412.4969 1449.86,414.0469 1454,416.6969 C1507.22,450.8469 1470.23,500.0669 1514,545.6969 C1550.12,583.3569 1597.9338,607.313 1639.4938,623.383" fill="none" id="GATEWAY-to-UCMD1" style="stroke:#181818;stroke-width:1;"/><polygon fill="#181818" points="1645.09,625.5469,1638.1383,618.5702,1640.4265,623.7436,1635.2531,626.0319,1645.09,625.5469" style="stroke:#181818;stroke-width:1;"/><text fill="#000000" font-family="sans-serif" font-size="13" lengthAdjust="spacing" textLength="150.6997" x="987.5" y="408.7638">Route /api/commandes</text></g><!--link GATEWAY to USUP1--><g class="link" data-entity-1="GATEWAY" data-entity-2="USUP1" data-source-line="92" data-uid="lnk60" id="link_GATEWAY_USUP1"><path d="M639.04,425.9369 C852.27,459.3669 1350.95,549.8569 1454,678.6969 C1531.06,775.0269 1439.96,851.0269 1514,949.6969 C1542.39,987.5369 1582.8856,1011.2195 1622.9356,1027.9895" fill="none" id="GATEWAY-to-USUP1" style="stroke:#181818;stroke-width:1;"/><polygon fill="#181818" points="1628.47,1030.3069,1621.7133,1023.1412,1623.858,1028.3757,1618.6235,1030.5204,1628.47,1030.3069" style="stroke:#181818;stroke-width:1;"/><text fill="#000000" font-family="sans-serif" font-size="13" lengthAdjust="spacing" textLength="153.7593" x="986" y="463.7638">Route /api/supply-chain</text></g><!--link GATEWAY to UECO1--><g class="link" data-entity-1="GATEWAY" data-entity-2="UECO1" data-source-line="93" data-uid="lnk61" id="link_GATEWAY_UECO1"><path d="M568.49,437.0469 C596.56,462.6069 643.22,501.5169 690,524.6969 C779.6,569.0869 885.3505,595.2708 962.7405,610.3308" fill="none" id="GATEWAY-to-UECO1" style="stroke:#181818;stroke-width:1;"/><polygon fill="#181818" points="968.63,611.4769,960.5598,605.8314,963.7221,610.5218,959.0317,613.6841,968.63,611.4769" style="stroke:#181818;stroke-width:1;"/><text fill="#000000" font-family="sans-serif" font-size="13" lengthAdjust="spacing" textLength="147.9575" x="691" y="520.7638">Route /api/ecommerce</text></g><!--SRC=[bLRRRjiu47tNLmoy3sqVt3Qs5rWOGG3NThB1raaGEodsaP5ecRL42YJLr2ZwF-lly8_ja9HeoJA1ra0BH3ndE7FcHhLbl22IvF12ucqgHScJgSY4X3-kxI_IJ6SKdaiA2LKm9GgIDq-QPKmHpGI7Fanal66QnhgK51Oiba9H-Ot529_DPh0eCytw2v8InRYAeeokDMW1agKR3GcJo4H3aVAk5EWAIUbIx_1cSqnucj46WCHQI7TCNgaIEOqY-mrwyxp8nEwmXznTs0Fqs7saDUQ6AdCZ9tYtFPyaEUC0zVaqOvHheFrOv3cLiGEvhr_eImsRFDn23VskgUILiOAvhr5K1GAzvKxfmt_v6Nbwy2C2_Dd_FFwJoGDDO2guHjjZr5sJJAIOXGNX2CdHVWykBojJ_RW-7__ryUF5rLLbrVnAHMEYqEZJj3-Th2x6y4ZZ3OQ5_w2G8YcPLjRp9tCSuWt6CFagIdqaUSuWn1cEOI4IjcQMnBvxnj0oVlvAvBVy6yOgv2uGERFd9fKcz44mzDkxPmmTpIgiH_H7QH5l5SH8bgIiN3EW47jmXfs9kCaTXBWen5GUzaXCQ4umGC2_I852Ukumn1sDOIK9L-l3NjOtUzReruLSaWnBBb0-MEZ6BMKq78RBPp533UTSqfGfRRmnsjCghNWOOg5sDuSzTn5835n83J6gAJAM7FRUm21aODWqm7Z2iE1fAPLd3aDCb6_2UPbrdFqTwSgYo7OmtH0S4-SLL1RIZmt4Y3WAYhXyUa0HFwE0nt9GG3aGhOyE6bI8Zce-4nIkKKvlNuNShZFn-ixJ1o7wq4o0hxHnlUVyHb_E_NGCA4BhSoF7dq4vvjFx2zyTI2aqXTZEJ-ULEGyHkpC97UOuRJnr4AAQZjpGU8liqq5lUCCGRtJK_iJBS3tTyhKas2-bNP6zSqBy8tWADrZJhsG7dmL9u1F928yPJ-q5DvFL_ClatoxnMfg4y0JkpK37I-nMjfphn_kxrVnkLldrCuhUOE8p2wXt8YxAQZD7rPA4Vl_ADJESQVKsoenBw8x53cY0e6ViNRS9BCYEpgo3729ovefI-XdPThovlI5ogxlssLpqM8qNqrNMPtK2idSGjNaHH2PGKBaM4c-CQGk7QmqwvQLE8CPKQyCrpqqBGwVJJn1McdOpdqBC9ISDgzgILA-GOqj6_h7Yh9WcWfCkEuDfHapAgfVEu8OswNcL9XnT6Kjvnw1vJS3PrqRR- -uxAl9lg9Ob0_JMEXYNVOjn5Q1E8LMv6iZI5Ue9e9Bfw93rr4HQShDnp7kNOKN9ld_2lJKkyqIzYrpFl7_lBXgXdSlBlrUh1vnyZuSznetbQai_Sda_Y-ni-iZfRS6L31vSrusNjObr3UonnzJRh9cuscCfgiU5bQAQDsYXDLV0M8lgmrQMJTN01rAm3_ujsWPMwZU0nwSRJiosKUTzqsZzGca3gnvh09kBk8sjijl0-XNrFm00]--></g></svg>